<?xml version="1.0" encoding="UTF-8" standalone="no"?>
<svg width="220px" height="44px" viewBox="0 0 220 44" version="1.1" xmlns="http://www.w3.org/2000/svg" xmlns:xlink="http://www.w3.org/1999/xlink">
    <!-- Generator: Sketch 48.2 (47327) - http://www.bohemiancoding.com/sketch -->
    <title>Group 5</title>
    <desc>Created with Sketch.</desc>
    <defs>
        <polygon id="path-1" points="0 0.0599682462 27.5743798 0.0599682462 27.5743798 30.7619048 0 30.7619048"></polygon>
    </defs>
    <g id="Page-1" stroke="none" stroke-width="1" fill="none" fill-rule="evenodd">
        <g id="Group-5">
            <path d="M1.484,1.00019215 L11.606,1.00019215 L11.606,29.1841922 C11.606,32.7711922 8.636,38.6701922 4.95,41.3471922 C3.586,42.3371922 1.975,43.4401922 0,44.0001922 C0,43.7401922 0.01,42.6401922 0.01,41.8001922 C1.016,40.7801922 1.484,37.8121922 1.484,35.4741922 L1.484,1.00019215 Z M111.001,1 L132.031,1 L132.031,9.247 L121.123,9.247 L121.123,12.387 L131.753,12.387 L131.753,18.432 L121.123,18.432 L121.123,21.805 L132.493,21.805 L132.493,30.1 L111,30.1 L111,1 L111.001,1 Z M197,1 L207.082,1 L207.122,21.667 L219.74,21.627 L219.74,30.054 L197,30.054 L197,1 Z M139,1 L148.84,1.00019215 C150.87,1.00019215 152.304,0.986192153 153.968,1.19719215 C156.093,1.46719215 158.656,3.01719215 159.818,4.23319215 C160.622,5.07319215 162.132,7.40019215 161.898,9.43519215 C161.723,10.9521922 161.152,12.8401922 158.983,14.8951922 C163.053,17.2971922 163.113,21.1491922 163.108,21.0891922 C163.108,27.9811922 156.748,30.0191922 153.408,30.0191922 C149.933,30.0191922 139.018,30.0711922 139.018,30.0711922 L139,1 Z M151.344,9 C152.889,9 153.454,10.234 153.454,11.005 C153.399,12.032 153.192,12.82 152.372,13.075 C151.962,13.347 150.652,13.245 150,13.225 L150,9.006 C150.38,9.006 151.042,9 151.344,9 Z M151.314,18.0230408 C153.208,18.0230408 154.714,18.9400408 154.714,19.9710408 C154.714,22.7660408 153.204,22.8380408 150,22.8380408 L150,18.0020408 C150.482,17.9920408 150.918,18.0220408 151.313,18.0220408 L151.314,18.0230408 Z M169,1 L190.03,1 L190.03,9.247 L179.124,9.247 L179.124,12.387 L189.754,12.387 L189.754,18.432 L179.124,18.432 L179.124,21.805 L190.492,21.805 L190.492,30.1 L169.002,30.1 L169.002,1 L169,1 Z" id="Shape" fill="#EC1238"></path>
            <g id="Group-3" transform="translate(17.000000, 0.000000)">
                <polygon id="Fill-1" fill="#EC1238" points="78.5947658 0.914285714 78.5947658 11.2297668 72.4437116 11.2297668 72.4437116 0.914921746 63.1235955 0.914921746 63.1235955 30.1491675 72.49961 30.1491675 72.49961 19.3213628 78.6411361 19.3213628 78.6411361 30.1714286 88 30.1714286 88 0.914285714"></polygon>
                <g id="Group-7">
                    <g id="Group-4" transform="translate(0.000000, 0.323810)">
                        <mask id="mask-2" fill="white">
                            <use xlink:href="#path-1"></use>
                        </mask>
                        <g id="Clip-3"></g>
                        <path d="M18.0346128,15.4323733 C18.0469697,15.4323733 18.0596518,15.4323733 18.0720087,15.4323733 C18.0720087,14.3013067 18.1295659,13.1663543 18.059977,12.0394971 C17.9194985,9.76570667 16.4779677,8.44424 14.0195937,8.24412571 C11.7781158,8.06182095 9.86962406,9.23206857 9.65110192,11.3967352 C9.38835506,14.0027543 9.36559233,16.6715924 9.61273047,19.2779352 C9.82539934,21.5193448 11.5199215,22.6089638 13.8830173,22.576259 C16.1322995,22.5451733 17.6954482,21.3292686 18.0037206,19.1425829 C18.1750913,17.9282971 18.0346128,16.670621 18.0346128,15.4323733 M0.110919498,15.3841257 C0.110919498,13.5529829 -0.0552483807,11.7033829 0.144738401,9.89393524 C0.599342498,5.77604952 2.90683225,2.87633524 6.75535836,1.43959238 C12.0249288,-0.527550476 17.3292936,-0.501321905 22.362782,2.23486857 C25.6214284,4.00643048 27.3032685,6.95342095 27.4801673,10.618621 C27.6242229,13.6047924 27.5764212,16.60424 27.5120352,19.5955924 C27.4125295,24.2331924 25.2227556,27.6260686 20.8913346,29.3179733 C15.6155857,31.3786971 10.2829301,31.317821 5.21692346,28.5903733 C1.86039736,26.7831924 0.230261203,23.7601067 0.0384039656,19.9942019 C-0.0396396563,18.4612876 0.0253966953,16.9212495 0.0253966953,15.3844495 C0.05401269,15.3841257 0.0826286847,15.3841257 0.110919498,15.3841257" id="Fill-2" fill="#EC1238" mask="url(#mask-2)"></path>
                    </g>
                    <path d="M32.029885,20.517219 L41.3265063,20.517219 C41.3713814,20.564819 41.4318652,20.5984952 41.4409703,20.6428571 C41.8214329,22.5102667 42.2987997,22.9713714 44.247614,23.1044571 C44.9607376,23.1530286 45.7073549,23.0652762 46.4055202,22.8998095 C47.324809,22.6818857 47.7429927,22.1055048 47.7608777,21.3160571 C47.7813642,20.4158667 47.2106702,19.9518476 46.4458427,19.8197333 C44.8778163,19.5487048 43.2870271,19.4117333 41.7141229,19.1656381 C40.3828288,18.9571048 39.0349504,18.7712381 37.7449544,18.4011238 C34.82092,17.5621333 33.0584349,15.5917524 32.5625327,12.5945714 C31.9872862,9.12041905 32.4942445,5.91567619 35.2293483,3.38899048 C36.9287482,1.8188381 39.0024323,0.987295238 41.2611447,0.633047619 C44.7558731,0.0851619048 48.2291395,0.128552381 51.5830641,1.39820952 C55.6055625,2.9204381 57.2708182,6.5516381 56.9300278,10.6271048 L47.6259273,10.6271048 C47.2659511,8.28110476 44.4661362,7.16784762 42.5641481,8.65024762 C42.1862868,8.94491429 41.9567085,9.59026667 41.9063054,10.0983238 C41.8406186,10.7598667 42.3778189,11.2303619 42.9771289,11.3524381 C44.4030509,11.6425714 45.8540119,11.8086857 47.2909901,12.0486286 C48.8343027,12.306381 50.4068817,12.4705524 51.9062948,12.8898857 C54.7623662,13.6880762 56.5346067,15.6030857 57.0470932,18.5387429 C57.6158361,21.7975619 57.1449729,24.8397524 54.7822022,27.3525143 C53.0727217,29.170381 50.8806715,30.1210857 48.4574171,30.5611429 C44.7428658,31.2359619 41.0696127,31.1326667 37.5179775,29.738019 C33.7309108,28.2510857 31.6217819,24.6953333 32.029885,20.517219" id="Fill-5" fill="#EC1238"></path>
                </g>
            </g>
        </g>
    </g>
</svg>